<svg t="1775653796343" class="icon" viewBox="0 0 1024 1024" version="1.1" xmlns="http://www.w3.org/2000/svg" p-id="13332" width="200" height="200">
  <path d="M486.4 216.6912H204.9152c-56.704 0-102.5152 45.824-102.5152 102.3616v460.8768c0 56.6144 45.9008 102.3616 102.5152 102.3616h614.1824c56.704 0 102.5152-45.824 102.5152-102.3616V319.0528c0-56.6144-45.9008-102.3616-102.5152-102.3616H793.6C793.1008 174.7712 758.9376 140.8 716.8768 140.8H563.1232A76.7744 76.7744 0 0 0 486.4 216.6912z" fill="#FFFFFF" p-id="13333"></path>
  <path d="M819.0848 216.6912H793.6C793.1008 174.7712 758.9376 140.8 716.8768 140.8H563.1232A76.7616 76.7616 0 0 0 486.4 216.6912H204.9024A102.3744 102.3744 0 0 0 102.4 319.0528v460.8768c0 56.6144 45.9008 102.3616 102.5024 102.3616h614.1824c56.704 0 102.5152-45.824 102.5152-102.3616V319.0528c0-56.6144-45.9008-102.3616-102.5152-102.3616z m-614.1824 51.2H537.6V217.6c0-14.1568 11.4304-25.6 25.5232-25.6h153.7408c14.0544 0 25.536 11.4944 25.536 25.6v50.2912h76.6848A51.1872 51.1872 0 0 1 870.4 319.0528V512H153.6V319.0528a51.1616 51.1616 0 0 1 51.3024-51.1616z m614.1824 563.2H204.9024A51.1744 51.1744 0 0 1 153.6 779.9296V563.2h716.8v216.7296a51.1744 51.1744 0 0 1-51.3152 51.1616z" fill="#66635C" p-id="13334"></path>
  <path d="M224 192h115.2a25.6 25.6 0 1 0 0-51.2h-115.2a25.6 25.6 0 1 0 0 51.2z" fill="#66635C" p-id="13335"></path>
  <path d="M524.8 716.8c-98.9696 0-179.2-80.2304-179.2-179.2s80.2304-179.2 179.2-179.2 179.2 80.2304 179.2 179.2-80.2304 179.2-179.2 179.2z" fill="#FFDD8C" p-id="13336"></path>
  <path d="M524.8 665.6c70.6944 0 128-57.3056 128-128s-57.3056-128-128-128-128 57.3056-128 128 57.3056 128 128 128z m0 51.2c-98.9696 0-179.2-80.2304-179.2-179.2s80.2304-179.2 179.2-179.2 179.2 80.2304 179.2 179.2-80.2304 179.2-179.2 179.2z" fill="#66635C" p-id="13337"></path>
  <path d="M550.4 576a64 64 0 1 1 0-128 64 64 0 0 1 0 128z" fill="#FFFFFF" p-id="13338"></path>
</svg>