<svg t="1777895964633" class="icon" viewBox="0 0 1024 1024" version="1.1" xmlns="http://www.w3.org/2000/svg" p-id="15263" width="200" height="200"><path d="M797.866667 753.706667c-86.976 93.504-161.6 163.946667-223.893334 211.285333a102.4 102.4 0 0 1-123.946666 0c-62.293333-47.36-136.917333-117.76-223.893334-211.264-177.066667-190.314667-157.888-413.866667 0-571.733333 157.866667-157.909333 413.866667-157.909333 571.733334 0 157.888 157.866667 177.066667 381.418667 0 571.733333z m-46.848-43.584c146.752-157.738667 142.293333-342.186667 1.6-482.901334-132.906667-132.885333-348.352-132.885333-481.237334 0-140.693333 140.714667-145.152 325.162667 1.6 482.901334 84.693333 91.050667 156.821333 159.104 215.786667 203.946666a38.4 38.4 0 0 0 46.464 0c58.965333-44.842667 131.093333-112.896 215.786667-203.946666zM512 595.2a138.666667 138.666667 0 1 1 0-277.333333 138.666667 138.666667 0 0 1 0 277.333333z m0-64a74.666667 74.666667 0 1 0 0-149.333333 74.666667 74.666667 0 0 0 0 149.333333z" fill="#FF8C42" p-id="15264"></path></svg>
