<svg t="1777880717716" class="icon" viewBox="0 0 1448 1024" version="1.1" xmlns="http://www.w3.org/2000/svg" p-id="1717" width="200" height="200"><path d="M591.51996126 941.38953719a90.135394 27.866286 0 1 0 180.27078799 0 90.135394 27.866286 0 1 0-180.27078799 0Z" fill="#D3D4D3" p-id="1718"></path><path d="M881.19172426 103.16477718C773.51089026-8.47238082 594.27218727-12.94474781 482.63502926 94.73608519s-116.109525 286.919536-6.36452199 398.55669402c46.615824 48.679993 200.396439 278.490845 202.46060799 467.36233898-2.064169-189.04350701 155.844784-419.198387 202.46060899-467.36233899 105.272636-109.572988 105.272636-280.383 0-390.12800201zM676.32291826 518.75086818c-120.065849 0-219.317991-99.252142-219.317991-219.317991S556.25706926 79.94287218 676.32291826 79.94287218 895.64090926 179.19501418 895.64090926 299.26086319s-98.736099 219.490005-219.317991 219.49000499z" fill="#E6C84A" p-id="1719"></path><path d="M676.32291826 62.39743319c-129.870653 0-237.035444 107.164791-237.035444 237.03544399S546.45226426 536.46832119 676.32291826 536.46832119s237.035444-107.164791 237.035444-237.035444S806.53760026 62.39743319 676.32291826 62.39743319z" fill="#E6C84A" p-id="1720"></path><path d="M786.23993526 333.83569919c4.128339 18.577524 7.912649 37.67109001 11.696959 56.24861399 1.376113 7.052579 2.752226 13.933143 4.12833899 21.32975001 1.376113 7.052579 2.752226 13.417101 3.78431001 19.43759399 0.86007099 5.504452 2.408198 10.664875 2.752226 14.79321402 0.860071 4.128339 1.376113 6.536536 1.376113 7.39660698 0.860071 5.16042301-0.516042 8.77272-3.78431101 10.148832-3.26826801 1.892155-6.536536 2.75222599-10.66487399 2.75222602-1.376113 0-3.268268-0.516042-5.504452-1.37611302-2.408198-0.860071-4.12833901-1.892155-5.504452-2.40819798l-102.692424-59.86091001c-16.685369 9.80480401-33.88678 19.953637-50.572148 29.758441-6.536536 3.78431-13.073072 7.396607-19.437595 11.18091701-6.020494 3.268268-11.69696 7.052579-17.71745299 10.14883298-4.644381 2.752226-8.77272 5.504452-13.417101 7.912649-3.78431 2.408198-6.536536 3.268268-7.39660601 3.78431001-2.752226 1.376113-5.160423 1.892155-7.912649 1.37611301-2.752226-0.516042-5.160423-1.376113-7.39660699-2.75222602-2.408198-1.376113-3.78431-3.268268-5.16042302-5.504451-0.860071-2.408198-1.376113-4.644381-0.86007099-7.05257898 0.516042-0.860071 0.860071-3.78431 1.892155-7.39660602 0.860071-4.128339 2.408198-8.77272 3.784311-14.449186s2.752226-12.040988 4.644381-18.57752399c1.892155-7.052579 3.78431-13.933143 5.160423-20.985721 3.78431-16.341341 8.428691-34.918864 13.41710101-55.21653-13.933143-12.040988-27.866286-23.737947-41.79942901-35.77893499-5.160423-4.644381-10.148833-8.77272-15.30925598-13.07307202-5.160423-4.12833901-9.804804-8.428691-13.93314302-11.69695999-4.128339-3.78431-7.396607-6.536536-10.148833-8.77271901-2.752226-2.408198-4.128339-3.268268-4.128338-3.78431099-3.26826801-2.752226-6.020494-6.020494-7.91264899-9.804804-2.408198-3.78431-3.268268-7.05257901-2.75222601-10.66487499 0.516042-3.78431 1.89215499-6.536536 4.128339-8.77271901s5.160423-3.26826801 7.912649-3.784311l121.78599-11.180917L663.07783125 112.10951019c1.376113-4.128339 3.78431-7.912649 6.53653701-10.664874 2.752226-3.26826801 7.052579-4.644381 11.696959-4.64438099 2.75222599 0 5.160423 0.516042 7.052579 1.89215499 1.89215499 0.860071 3.78431 2.408198 5.160423 4.128339 1.376113 1.376113 2.408198 3.268268 3.268268 4.64438001 0.860071 1.376113 1.892155 2.752226 2.408198 3.78431099l44.207626 105.44465 121.78599 11.69695901c5.160423 1.376113 8.77272 2.752226 11.180917 4.64438099 2.408198 1.892155 3.268268 4.644381 3.26826901 8.77272 0 3.78431-0.860071 7.05257901-3.26826901 9.804804-2.752226 3.26826801-5.504452 7.052579-8.428691 10.148833l-81.706702 72.073912z" fill="#FFFFFF" p-id="1721"></path></svg>