<svg t="1777884509513" class="icon" viewBox="0 0 1024 1024" version="1.1" xmlns="http://www.w3.org/2000/svg" p-id="12852" width="200" height="200"><path d="M583.68 788.48c-10.24 0-17.066667 6.826667-17.066667 13.653333-3.413333 20.48-3.413333 44.373333-3.413333 68.266667 0 27.306667-23.893333 51.2-51.2 51.2s-51.2-23.893333-51.2-51.2c0-23.893333 0-47.786667-3.413333-68.266667 0-10.24-6.826667-17.066667-17.066667-13.653333-133.12 6.826667-286.72 44.373333-286.72 116.053333C153.6 983.04 334.506667 1024 512 1024s358.4-40.96 358.4-119.466667c0-71.68-153.6-109.226667-286.72-116.053333z" fill="#ffffff" p-id="12853"></path><path d="M344.746667 515.413333c75.093333 71.68 150.186667 143.36 150.186666 354.986667 0 10.24 6.826667 17.066667 17.066667 17.066667s17.066667-6.826667 17.066667-17.066667c0-211.626667 75.093333-283.306667 150.186666-354.986667 58.026667-54.613333 112.64-105.813333 119.466667-211.626666 0-10.24 3.413333-20.48 3.413333-30.72 0-150.186667-129.706667-273.066667-290.133333-273.066667S221.866667 122.88 221.866667 273.066667c0 10.24 0 20.48 3.413333 30.72 6.826667 105.813333 61.44 160.426667 119.466667 211.626666zM512 375.466667c-64.853333 0-119.466667-54.613333-119.466667-119.466667S447.146667 136.533333 512 136.533333s119.466667 54.613333 119.466667 119.466667S576.853333 375.466667 512 375.466667z" fill="#ffffff" p-id="12854"></path></svg>