<svg t="1777884319103" class="icon" viewBox="0 0 1024 1024" version="1.1" xmlns="http://www.w3.org/2000/svg" p-id="8290" width="200" height="200"><path d="M526.301867 204.1856l293.546666 293.546667c-43.690667 40.96-100.693333 58.368-155.989333 53.930666l-191.488-191.488c-4.437333-55.296 12.970667-112.298667 53.930667-155.989333zM862.5152 444.142933l-282.624-282.624c79.189333-42.666667 179.882667-30.72 246.442667 35.84a208.896 208.896 0 0 1 36.181333 246.784zM430.728533 415.1296l-275.456 337.237333c-26.965333 33.109333-24.576 80.896 5.461334 110.592 30.037333 30.378667 77.824 32.768 110.933333 5.802667l337.237333-275.114667-178.176-178.517333z m-35.498666 261.802667a33.9968 33.9968 0 1 1-48.128-48.128l40.96-41.301334c13.312-13.312 35.157333-13.312 48.469333 0 13.312 13.312 13.312 34.816 0 48.469334l-41.301333 40.96z" p-id="8291"></path></svg>